<?xml version="1.0" standalone="no"?>
<!DOCTYPE svg PUBLIC "-//W3C//DTD SVG 20010904//EN"
 "http://www.w3.org/TR/2001/REC-SVG-20010904/DTD/svg10.dtd">
<svg version="1.0" xmlns="http://www.w3.org/2000/svg"
 width="821.000000pt" height="821.000000pt" viewBox="0 0 821.000000 821.000000"
 preserveAspectRatio="xMidYMid meet">
<metadata>
Created by potrace 1.11, written by Peter Selinger 2001-2013
</metadata>
<g transform="translate(0.000000,821.000000) scale(0.100000,-0.100000)"
fill="#000000" stroke="none">
<path d="M2530 7495 l-815 -273 -3 -1976 c-1 -1328 1 -1976 8 -1976 10 0 1055
348 1440 480 124 42 213 67 225 63 17 -5 318 -128 1170 -480 99 -41 226 -93
282 -115 l102 -41 83 43 c46 23 106 55 133 70 28 16 93 50 145 78 52 27 131
68 175 92 44 23 118 63 165 88 205 108 250 132 333 176 48 25 126 67 175 92
236 126 299 159 319 168 l23 11 0 1883 c0 1327 -3 1882 -11 1882 -9 0 -170
-82 -294 -151 -28 -15 -93 -49 -145 -77 -52 -27 -131 -68 -175 -92 -44 -23
-117 -62 -162 -86 -46 -24 -121 -64 -168 -89 -47 -25 -123 -65 -170 -90 -47
-25 -124 -66 -172 -92 -49 -25 -130 -68 -181 -94 l-93 -48 -72 38 c-40 21
-144 77 -232 124 -637 339 -1260 667 -1266 666 -2 -1 -371 -124 -819 -274z
m1077 -2327 c37 -34 46 -69 28 -111 -22 -54 -54 -66 -181 -68 -60 -1 -144 -8
-187 -16 -43 -8 -93 -12 -112 -9 -60 12 -84 81 -46 135 20 27 46 37 176 62 33
6 69 15 80 20 22 10 155 17 195 10 14 -2 35 -12 47 -23z m465 -24 c196 -45
256 -71 284 -125 31 -61 -19 -139 -89 -139 -13 0 -53 11 -88 23 -35 13 -120
35 -188 48 -106 20 -129 28 -153 52 -41 41 -39 94 4 137 31 31 34 32 94 27 34
-3 95 -14 136 -23z m-1168 -180 c19 -19 26 -37 26 -63 0 -41 -12 -55 -115
-132 -33 -24 -94 -79 -137 -121 -90 -91 -119 -99 -169 -49 -54 54 -33 109 87
221 59 55 161 136 199 158 35 20 80 14 109 -14z m1911 -10 c63 -4 113 -11 117
-18 12 -17 9 -155 -3 -178 -10 -19 -17 -20 -117 -14 -130 9 -219 24 -249 42
-13 8 -30 30 -38 50 -16 40 -8 74 28 112 20 22 28 23 87 18 36 -3 115 -9 175
-12z m-2377 -550 c30 -34 28 -59 -13 -161 -19 -49 -46 -133 -60 -187 -29 -116
-51 -146 -104 -146 -40 1 -62 14 -79 47 -17 31 -15 62 9 151 48 180 100 300
139 320 34 17 80 7 108 -24z"/>
<path d="M4060 2590 c-22 -42 1 -50 135 -50 68 0 130 -3 139 -6 14 -6 16 -95
16 -915 l0 -909 30 0 30 0 2 913 3 912 120 2 c156 4 167 6 163 41 l-3 27 -312
3 c-307 2 -312 2 -323 -18z"/>
<path d="M6754 2596 c-3 -8 -4 -23 -2 -33 3 -16 17 -18 141 -21 100 -2 137 -6
137 -15 0 -7 0 -411 0 -898 0 -488 3 -894 6 -903 7 -19 45 -21 62 -4 9 9 12
226 12 915 l0 903 128 0 c70 0 133 4 140 9 8 4 12 19 10 32 l-3 24 -313 3
c-266 2 -313 0 -318 -12z"/>
<path d="M1012 1623 l3 -928 217 -3 218 -2 6 24 c3 14 3 30 -1 35 -4 7 -70 11
-184 11 -124 0 -181 4 -189 12 -9 9 -12 222 -12 895 l0 883 -30 0 -30 0 2
-927z"/>
<path d="M3516 2538 c-5 -15 -20 -126 -36 -253 -6 -49 -15 -121 -20 -160 -5
-38 -14 -110 -20 -160 -6 -49 -15 -121 -20 -160 -5 -38 -14 -108 -19 -155 -6
-47 -13 -105 -16 -130 -4 -25 -10 -80 -14 -124 -8 -75 -18 -95 -47 -96 -6 0
-17 -6 -23 -14 -17 -20 3 -56 31 -56 19 0 20 -4 14 -43 -3 -23 -11 -80 -17
-127 -6 -47 -15 -119 -20 -160 -5 -41 -12 -110 -16 -152 l-6 -78 30 0 c34 0
34 0 54 163 5 42 14 114 19 160 6 45 13 111 17 147 3 36 10 71 15 78 7 8 48
12 138 12 l128 0 7 -27 c4 -16 12 -59 17 -98 10 -73 20 -142 38 -260 6 -38 13
-95 17 -125 7 -67 18 -90 43 -90 34 0 34 32 0 272 -6 38 -14 99 -20 138 -5 38
-14 101 -20 140 -5 39 -14 102 -20 140 -5 39 -14 102 -20 140 -5 38 -14 101
-20 140 -5 39 -14 102 -20 140 -5 39 -14 102 -20 140 -5 39 -14 102 -20 140
-5 39 -14 102 -20 140 -5 39 -14 100 -20 138 -5 37 -14 101 -19 142 -5 41 -13
83 -16 93 -8 20 -54 23 -59 5z m56 -448 c4 -36 12 -98 18 -137 5 -40 15 -104
20 -143 6 -38 15 -101 20 -140 6 -38 15 -101 20 -140 26 -180 28 -215 17 -222
-15 -9 -183 -10 -216 -1 -21 5 -22 10 -17 42 4 20 11 74 17 121 5 47 14 120
19 163 42 331 49 394 56 467 3 36 8 72 10 80 9 27 28 -20 36 -90z"/>
<path d="M4950 2130 l0 -420 -25 0 c-31 0 -50 -32 -35 -60 6 -12 21 -20 35
-20 l25 0 2 -462 3 -463 255 0 255 0 0 30 0 30 -225 5 -225 5 0 425 0 425 134
3 c79 1 140 7 148 14 7 6 13 21 13 34 0 30 -14 34 -170 37 l-125 2 -3 374 c-2
267 1 378 9 387 9 11 57 14 230 14 l219 0 0 30 0 30 -260 0 -260 0 0 -420z"/>
<path d="M1905 2516 c-116 -35 -195 -108 -195 -181 0 -21 5 -25 28 -25 21 0
32 7 43 28 38 73 112 113 213 115 82 2 123 -18 160 -74 21 -34 21 -34 21 -759
l0 -725 -28 -41 c-37 -55 -91 -84 -155 -84 -28 0 -54 4 -57 10 -3 5 -15 10
-26 10 -11 0 -41 21 -67 47 -37 38 -50 60 -60 101 -9 39 -12 227 -12 698 0
566 -2 645 -15 650 -8 4 -22 1 -30 -6 -13 -11 -15 -103 -15 -691 l0 -679 22
-48 c49 -104 131 -152 262 -152 102 0 154 23 200 88 56 79 56 69 56 823 0 702
-1 716 -36 796 -41 91 -183 136 -309 99z"/>
<path d="M6430 1621 c0 -900 0 -910 20 -916 11 -3 24 -3 30 0 7 4 10 315 10
916 l0 909 -30 0 -30 0 0 -909z"/>
<path d="M2680 2511 c-60 -13 -107 -41 -154 -91 -78 -83 -76 -62 -76 -819 0
-702 0 -696 47 -771 27 -44 57 -72 108 -101 59 -33 193 -34 258 0 57 29 95 71
125 133 19 40 22 65 22 158 l0 110 -30 0 -30 0 0 -89 c0 -65 -5 -101 -19 -133
-62 -143 -221 -182 -340 -83 -69 59 -66 25 -66 780 0 759 -4 719 70 784 94 82
212 82 304 -2 35 -33 45 -63 51 -167 5 -93 5 -95 30 -95 25 0 25 0 28 107 3
116 -10 161 -63 214 -59 59 -169 86 -265 65z"/>
</g>
</svg>
